<mxfile host="app.diagrams.net" modified="2023-11-13T05:23:42.711Z" agent="Mozilla/5.0 (Windows NT 10.0; Win64; x64) AppleWebKit/537.36 (KHTML, like Gecko) Chrome/119.0.0.0 Safari/537.36" etag="WqrN8KT4D440lMRXspZ_" version="22.1.0" type="github">
  <diagram name="Page-1" id="z6avR5DVZLPRieBeSbfF">
    <mxGraphModel dx="1000" dy="509" grid="1" gridSize="10" guides="1" tooltips="1" connect="1" arrows="1" fold="1" page="1" pageScale="1" pageWidth="850" pageHeight="1100" math="0" shadow="0">
      <root>
        <mxCell id="0" />
        <mxCell id="1" parent="0" />
        <mxCell id="5Gdjez7pxa2Upb4zRj2d-2" value="" style="rounded=0;whiteSpace=wrap;html=1;" vertex="1" parent="1">
          <mxGeometry x="30" y="60" width="157" height="180" as="geometry" />
        </mxCell>
        <mxCell id="5Gdjez7pxa2Upb4zRj2d-3" value="Name&amp;nbsp; &amp;nbsp; &amp;nbsp; &amp;nbsp; &amp;nbsp; &amp;nbsp; &amp;nbsp; &amp;nbsp; &amp;nbsp; String" style="rounded=0;whiteSpace=wrap;html=1;" vertex="1" parent="1">
          <mxGeometry x="35" y="66" width="146" height="30" as="geometry" />
        </mxCell>
        <mxCell id="5Gdjez7pxa2Upb4zRj2d-4" value="UserID&amp;nbsp; &amp;nbsp; &amp;nbsp; &amp;nbsp; &amp;nbsp; &amp;nbsp; &amp;nbsp; &amp;nbsp; &amp;nbsp; String" style="rounded=0;whiteSpace=wrap;html=1;" vertex="1" parent="1">
          <mxGeometry x="35" y="101" width="147" height="30" as="geometry" />
        </mxCell>
        <mxCell id="5Gdjez7pxa2Upb4zRj2d-5" value="Password&amp;nbsp; &amp;nbsp; &amp;nbsp; &amp;nbsp; &amp;nbsp; &amp;nbsp; &amp;nbsp; String" style="rounded=0;whiteSpace=wrap;html=1;" vertex="1" parent="1">
          <mxGeometry x="35" y="136" width="147" height="30" as="geometry" />
        </mxCell>
        <mxCell id="5Gdjez7pxa2Upb4zRj2d-6" value="Photo URL&amp;nbsp; &amp;nbsp; &amp;nbsp; &amp;nbsp; &amp;nbsp; &amp;nbsp; &amp;nbsp; String" style="rounded=0;whiteSpace=wrap;html=1;" vertex="1" parent="1">
          <mxGeometry x="35" y="170" width="147" height="30" as="geometry" />
        </mxCell>
        <mxCell id="5Gdjez7pxa2Upb4zRj2d-7" value="ID&amp;nbsp;&lt;span style=&quot;white-space: pre;&quot;&gt;&#x9;&lt;/span&gt;&lt;span style=&quot;white-space: pre;&quot;&gt;&#x9;&lt;/span&gt; &amp;nbsp; &amp;nbsp; &amp;nbsp; &amp;nbsp; &amp;nbsp; &amp;nbsp; String" style="rounded=0;whiteSpace=wrap;html=1;" vertex="1" parent="1">
          <mxGeometry x="35" y="205" width="147" height="30" as="geometry" />
        </mxCell>
        <mxCell id="5Gdjez7pxa2Upb4zRj2d-8" value="" style="rounded=0;whiteSpace=wrap;html=1;" vertex="1" parent="1">
          <mxGeometry x="267" y="50" width="158" height="217" as="geometry" />
        </mxCell>
        <mxCell id="5Gdjez7pxa2Upb4zRj2d-9" value="Name&amp;nbsp; &amp;nbsp; &amp;nbsp; &amp;nbsp; &amp;nbsp; &amp;nbsp; &amp;nbsp; &amp;nbsp; &amp;nbsp; String" style="rounded=0;whiteSpace=wrap;html=1;" vertex="1" parent="1">
          <mxGeometry x="272" y="56" width="146" height="30" as="geometry" />
        </mxCell>
        <mxCell id="5Gdjez7pxa2Upb4zRj2d-10" value="UserID&amp;nbsp; &amp;nbsp; &amp;nbsp; &amp;nbsp; &amp;nbsp; &amp;nbsp; &amp;nbsp; &amp;nbsp; &amp;nbsp; String" style="rounded=0;whiteSpace=wrap;html=1;" vertex="1" parent="1">
          <mxGeometry x="272" y="91" width="147" height="30" as="geometry" />
        </mxCell>
        <mxCell id="5Gdjez7pxa2Upb4zRj2d-11" value="Password&amp;nbsp; &amp;nbsp; &amp;nbsp; &amp;nbsp; &amp;nbsp; &amp;nbsp; &amp;nbsp; String" style="rounded=0;whiteSpace=wrap;html=1;" vertex="1" parent="1">
          <mxGeometry x="272" y="126" width="147" height="30" as="geometry" />
        </mxCell>
        <mxCell id="5Gdjez7pxa2Upb4zRj2d-12" value="Photo URL&amp;nbsp; &amp;nbsp; &amp;nbsp; &amp;nbsp; &amp;nbsp; &amp;nbsp; &amp;nbsp;String" style="rounded=0;whiteSpace=wrap;html=1;" vertex="1" parent="1">
          <mxGeometry x="272" y="160" width="147" height="30" as="geometry" />
        </mxCell>
        <mxCell id="5Gdjez7pxa2Upb4zRj2d-13" value="ID&amp;nbsp;&lt;span style=&quot;white-space: pre;&quot;&gt;&#x9;&lt;/span&gt;&lt;span style=&quot;white-space: pre;&quot;&gt;&#x9;&lt;/span&gt; &amp;nbsp; &amp;nbsp; &amp;nbsp; &amp;nbsp; &amp;nbsp; &amp;nbsp; String" style="rounded=0;whiteSpace=wrap;html=1;" vertex="1" parent="1">
          <mxGeometry x="272" y="195" width="147" height="30" as="geometry" />
        </mxCell>
        <mxCell id="5Gdjez7pxa2Upb4zRj2d-14" value="&lt;u&gt;&lt;b&gt;&lt;font style=&quot;font-size: 16px;&quot;&gt;HO Profile&lt;/font&gt;&lt;/b&gt;&lt;/u&gt;" style="text;html=1;strokeColor=none;fillColor=none;align=center;verticalAlign=middle;whiteSpace=wrap;rounded=0;" vertex="1" parent="1">
          <mxGeometry x="62.5" y="20" width="95" height="30" as="geometry" />
        </mxCell>
        <mxCell id="5Gdjez7pxa2Upb4zRj2d-15" value="InchargeOfBank&amp;nbsp; &amp;nbsp; &amp;nbsp;[String]" style="rounded=0;whiteSpace=wrap;html=1;" vertex="1" parent="1">
          <mxGeometry x="272" y="228" width="147" height="30" as="geometry" />
        </mxCell>
        <mxCell id="5Gdjez7pxa2Upb4zRj2d-16" value="&lt;b&gt;&lt;u&gt;&lt;font style=&quot;font-size: 17px;&quot;&gt;Manager&lt;/font&gt;&lt;/u&gt;&lt;/b&gt;" style="text;html=1;strokeColor=none;fillColor=none;align=center;verticalAlign=middle;whiteSpace=wrap;rounded=0;" vertex="1" parent="1">
          <mxGeometry x="315.5" y="20" width="60" height="30" as="geometry" />
        </mxCell>
        <mxCell id="5Gdjez7pxa2Upb4zRj2d-17" value="" style="rounded=0;whiteSpace=wrap;html=1;" vertex="1" parent="1">
          <mxGeometry x="520" y="46" width="158" height="214" as="geometry" />
        </mxCell>
        <mxCell id="5Gdjez7pxa2Upb4zRj2d-18" value="Name&amp;nbsp; &amp;nbsp; &amp;nbsp; &amp;nbsp; &amp;nbsp; &amp;nbsp; &amp;nbsp; &amp;nbsp; &amp;nbsp; String" style="rounded=0;whiteSpace=wrap;html=1;" vertex="1" parent="1">
          <mxGeometry x="525" y="52" width="146" height="30" as="geometry" />
        </mxCell>
        <mxCell id="5Gdjez7pxa2Upb4zRj2d-19" value="UserID&amp;nbsp; &amp;nbsp; &amp;nbsp; &amp;nbsp; &amp;nbsp; &amp;nbsp; &amp;nbsp; &amp;nbsp; &amp;nbsp; String" style="rounded=0;whiteSpace=wrap;html=1;" vertex="1" parent="1">
          <mxGeometry x="525" y="87" width="147" height="30" as="geometry" />
        </mxCell>
        <mxCell id="5Gdjez7pxa2Upb4zRj2d-20" value="Password&amp;nbsp; &amp;nbsp; &amp;nbsp; &amp;nbsp; &amp;nbsp; &amp;nbsp; &amp;nbsp; String" style="rounded=0;whiteSpace=wrap;html=1;" vertex="1" parent="1">
          <mxGeometry x="525" y="122" width="147" height="30" as="geometry" />
        </mxCell>
        <mxCell id="5Gdjez7pxa2Upb4zRj2d-21" value="Photo URL&amp;nbsp; &amp;nbsp; &amp;nbsp; &amp;nbsp; &amp;nbsp; &amp;nbsp; &amp;nbsp;String" style="rounded=0;whiteSpace=wrap;html=1;" vertex="1" parent="1">
          <mxGeometry x="525" y="156" width="147" height="30" as="geometry" />
        </mxCell>
        <mxCell id="5Gdjez7pxa2Upb4zRj2d-22" value="ID&amp;nbsp;&lt;span style=&quot;white-space: pre;&quot;&gt;&#x9;&lt;/span&gt;&lt;span style=&quot;white-space: pre;&quot;&gt;&#x9;&lt;/span&gt; &amp;nbsp; &amp;nbsp; &amp;nbsp; &amp;nbsp; &amp;nbsp; &amp;nbsp; String" style="rounded=0;whiteSpace=wrap;html=1;" vertex="1" parent="1">
          <mxGeometry x="525" y="191" width="147" height="30" as="geometry" />
        </mxCell>
        <mxCell id="5Gdjez7pxa2Upb4zRj2d-23" value="InchargeOfBank&amp;nbsp; &amp;nbsp; String" style="rounded=0;whiteSpace=wrap;html=1;" vertex="1" parent="1">
          <mxGeometry x="525" y="224" width="147" height="30" as="geometry" />
        </mxCell>
        <mxCell id="5Gdjez7pxa2Upb4zRj2d-24" value="&lt;span style=&quot;font-size: 17px;&quot;&gt;&lt;b&gt;&lt;u&gt;RO&lt;/u&gt;&lt;/b&gt;&lt;/span&gt;" style="text;html=1;strokeColor=none;fillColor=none;align=center;verticalAlign=middle;whiteSpace=wrap;rounded=0;" vertex="1" parent="1">
          <mxGeometry x="568.5" y="16" width="60" height="30" as="geometry" />
        </mxCell>
      </root>
    </mxGraphModel>
  </diagram>
</mxfile>
